<?xml version="1.0" encoding="UTF-8" standalone="no"?>
<!-- Created with Inkscape (http://www.inkscape.org/) -->

<svg
   xmlns:dc="http://purl.org/dc/elements/1.1/"
   xmlns:cc="http://creativecommons.org/ns#"
   xmlns:rdf="http://www.w3.org/1999/02/22-rdf-syntax-ns#"
   xmlns:svg="http://www.w3.org/2000/svg"
   xmlns="http://www.w3.org/2000/svg"
   xmlns:sodipodi="http://sodipodi.sourceforge.net/DTD/sodipodi-0.dtd"
   xmlns:inkscape="http://www.inkscape.org/namespaces/inkscape"
   width="200"
   height="100"
   id="svg2"
   version="1.1"
   inkscape:version="0.48.4 r9939"
   sodipodi:docname="logo-hover.svg"
   inkscape:export-filename="C:\Users\a2mb0079\gitRepo\_mywebsitegen\template\img\logo_social.png"
   inkscape:export-xdpi="270"
   inkscape:export-ydpi="270">
  <defs
     id="defs4" />
  <sodipodi:namedview
     id="base"
     pagecolor="#000000"
     bordercolor="#666666"
     borderopacity="1.0"
     inkscape:pageopacity="1"
     inkscape:pageshadow="2"
     inkscape:zoom="1.8642277"
     inkscape:cx="148.11848"
     inkscape:cy="14.662276"
     inkscape:document-units="px"
     inkscape:current-layer="layer1"
     showgrid="false"
     inkscape:window-width="726"
     inkscape:window-height="443"
     inkscape:window-x="1877"
     inkscape:window-y="526"
     inkscape:window-maximized="0"
     showguides="true"
     inkscape:guide-bbox="true">
    <sodipodi:guide
       orientation="1,0"
       position="-23.509005,59.242692"
       id="guide3166" />
  </sodipodi:namedview>
  <metadata
     id="metadata7">
    <rdf:RDF>
      <cc:Work
         rdf:about="">
        <dc:format>image/svg+xml</dc:format>
        <dc:type
           rdf:resource="http://purl.org/dc/dcmitype/StillImage" />
        <dc:title></dc:title>
      </cc:Work>
    </rdf:RDF>
  </metadata>
  <g
     inkscape:label="Livello 1"
     inkscape:groupmode="layer"
     id="layer1"
     transform="translate(0,-952.3622)">
    <flowRoot
       xml:space="preserve"
       id="flowRoot2982"
       style="font-size:32px;font-style:normal;font-variant:normal;font-weight:normal;font-stretch:normal;text-align:start;line-height:125%;letter-spacing:0px;word-spacing:0px;writing-mode:lr-tb;text-anchor:start;fill:#ffffff;fill-opacity:1;stroke:none;font-family:Sans;-inkscape-font-specification:Sans"
       transform="matrix(1.5653,0,0,1.5653,49.76448,989.53398)"><flowRegion
         id="flowRegion2984"><rect
           id="rect2986"
           width="185.86807"
           height="32.324883"
           x="6.0609155"
           y="8.583746"
           style="font-size:32px;font-style:normal;font-variant:normal;font-weight:normal;font-stretch:normal;text-align:start;line-height:125%;writing-mode:lr-tb;text-anchor:start;fill:#ffffff;fill-opacity:1;font-family:Sans;-inkscape-font-specification:Sans" /></flowRegion><flowPara
         id="flowPara3044">v</flowPara></flowRoot>    <flowRoot
       transform="matrix(1.5653,0,0,1.5653,72.333127,988.94699)"
       style="font-size:32px;font-style:normal;font-variant:normal;font-weight:normal;font-stretch:normal;text-align:start;line-height:125%;letter-spacing:0px;word-spacing:0px;writing-mode:lr-tb;text-anchor:start;fill:#ffffff;fill-opacity:1;stroke:none;font-family:Sans;-inkscape-font-specification:Sans"
       id="flowRoot2992"
       xml:space="preserve"><flowRegion
         id="flowRegion2994"><rect
           style="font-size:32px;font-style:normal;font-variant:normal;font-weight:normal;font-stretch:normal;text-align:start;line-height:125%;writing-mode:lr-tb;text-anchor:start;fill:#ffffff;fill-opacity:1;font-family:Sans;-inkscape-font-specification:Sans"
           y="8.583746"
           x="6.0609155"
           height="32.324883"
           width="185.86807"
           id="rect2996" /></flowRegion><flowPara
         id="flowPara3042">e</flowPara></flowRoot>    <flowRoot
       xml:space="preserve"
       id="flowRoot2982-9"
       style="font-size:32px;font-style:normal;font-variant:normal;font-weight:normal;font-stretch:normal;text-align:start;line-height:125%;letter-spacing:0px;word-spacing:0px;writing-mode:lr-tb;text-anchor:start;fill:#ffffff;fill-opacity:1;stroke:none;font-family:Sans;-inkscape-font-specification:Sans"
       transform="matrix(1.5653,0,0,1.5653,-3.8272829,988.94699)"><flowRegion
         id="flowRegion2984-4"><rect
           id="rect2986-8"
           width="185.86807"
           height="32.324883"
           x="6.0609155"
           y="8.583746"
           style="font-size:32px;font-style:normal;font-variant:normal;font-weight:normal;font-stretch:normal;text-align:start;line-height:125%;writing-mode:lr-tb;text-anchor:start;fill:#ffffff;fill-opacity:1;font-family:Sans;-inkscape-font-specification:Sans" /></flowRegion><flowPara
         id="flowPara3040">d</flowPara></flowRoot>    <flowRoot
       xml:space="preserve"
       id="flowRoot2982-1-2"
       style="font-size:32px;font-style:normal;font-variant:normal;font-weight:normal;font-stretch:normal;text-align:start;line-height:125%;letter-spacing:0px;word-spacing:0px;writing-mode:lr-tb;text-anchor:start;fill:#ffffff;fill-opacity:1;stroke:none;font-family:Sans;-inkscape-font-specification:Sans"
       transform="matrix(1.5653,0,0,1.5653,140.04783,988.94699)"
       inkscape:export-filename="C:\Users\a2mb0079\gitRepo\_mywebsitegen\template\img\logo.png"
       inkscape:export-xdpi="90"
       inkscape:export-ydpi="90"><flowRegion
         id="flowRegion2984-7-4"><rect
           id="rect2986-4-5"
           width="185.86807"
           height="32.324883"
           x="6.0609155"
           y="8.583746"
           style="font-size:32px;font-style:normal;font-variant:normal;font-weight:normal;font-stretch:normal;text-align:start;line-height:125%;writing-mode:lr-tb;text-anchor:start;fill:#ffffff;fill-opacity:1;font-family:Sans;-inkscape-font-specification:Sans" /></flowRegion><flowPara
         id="flowPara3164">st</flowPara></flowRoot>    <flowRoot
       transform="matrix(1.5653,0,0,1.5653,22.781583,988.94703)"
       style="font-size:32px;font-style:normal;font-variant:normal;font-weight:normal;font-stretch:normal;text-align:start;line-height:125%;letter-spacing:0px;word-spacing:0px;writing-mode:lr-tb;text-anchor:start;fill:#ffffff;fill-opacity:1;stroke:none;font-family:Sans;-inkscape-font-specification:Sans"
       id="flowRoot2992-1"
       xml:space="preserve"><flowRegion
         id="flowRegion2994-7"><rect
           style="font-size:32px;font-style:normal;font-variant:normal;font-weight:normal;font-stretch:normal;text-align:start;line-height:125%;writing-mode:lr-tb;text-anchor:start;fill:#ffffff;fill-opacity:1;font-family:Sans;-inkscape-font-specification:Sans"
           y="8.583746"
           x="6.0609155"
           height="32.324883"
           width="185.86807"
           id="rect2996-1" /></flowRegion><flowPara
         id="flowPara3042-1">e</flowPara></flowRoot>    <flowRoot
       xml:space="preserve"
       id="flowRoot2982-1"
       style="font-size:32px;font-style:normal;font-weight:normal;line-height:125%;letter-spacing:0px;word-spacing:0px;fill:#000000;fill-opacity:1;stroke:none;font-family:Sans"
       transform="matrix(1.5653,0,0,1.5653,140.04783,1062.6493)"><flowRegion
         id="flowRegion2984-7"><rect
           id="rect2986-4"
           width="185.86807"
           height="32.324883"
           x="6.0609155"
           y="8.583746"
           style="font-size:32px" /></flowRegion><flowPara
         id="flowPara2988-0">develost</flowPara></flowRoot>    <flowRoot
       xml:space="preserve"
       id="flowRoot2982-1-2-5"
       style="font-size:32px;font-style:normal;font-variant:normal;font-weight:normal;font-stretch:normal;text-align:start;line-height:125%;letter-spacing:0px;word-spacing:0px;writing-mode:lr-tb;text-anchor:start;fill:#ffffff;fill-opacity:1;stroke:none;font-family:Sans;-inkscape-font-specification:Sans"
       transform="matrix(1.5653,0,0,1.5653,101.49183,989.53398)"><flowRegion
         id="flowRegion2984-7-4-2"><rect
           id="rect2986-4-5-7"
           width="185.86807"
           height="32.324883"
           x="6.0609155"
           y="8.583746"
           style="font-size:32px;font-style:normal;font-variant:normal;font-weight:normal;font-stretch:normal;text-align:start;line-height:125%;writing-mode:lr-tb;text-anchor:start;fill:#ffffff;fill-opacity:1;font-family:Sans;-inkscape-font-specification:Sans" /></flowRegion><flowPara
         id="flowPara3129">l</flowPara></flowRoot>    <flowRoot
       xml:space="preserve"
       id="flowRoot2982-1-2-1"
       style="font-size:32px;font-style:normal;font-variant:normal;font-weight:normal;font-stretch:normal;text-align:start;line-height:125%;letter-spacing:0px;word-spacing:0px;writing-mode:lr-tb;text-anchor:start;fill:#19a347;fill-opacity:1;stroke:none;font-family:Sans;-inkscape-font-specification:Sans"
       transform="matrix(1.5653,0,0,1.5653,111.60006,988.94699)"><flowRegion
         id="flowRegion2984-7-4-4"><rect
           id="rect2986-4-5-2"
           width="185.86807"
           height="32.324883"
           x="6.0609155"
           y="8.583746"
           style="font-size:32px;font-style:normal;font-variant:normal;font-weight:normal;font-stretch:normal;text-align:start;line-height:125%;writing-mode:lr-tb;text-anchor:start;fill:#19a347;fill-opacity:1;font-family:Sans;-inkscape-font-specification:Sans" /></flowRegion><flowPara
         id="flowPara3160">o</flowPara></flowRoot>    <path
       sodipodi:type="arc"
       style="fill:#19a347;fill-opacity:1;fill-rule:nonzero;stroke:#000000;stroke-width:0;stroke-miterlimit:0;stroke-opacity:1;stroke-dasharray:none"
       id="path3950-8"
       sodipodi:cx="133.73506"
       sodipodi:cy="26.976624"
       sodipodi:rx="2.7428572"
       sodipodi:ry="2.7428572"
       d="m 136.47792,26.976624 c 0,1.514838 -1.22802,2.742857 -2.74286,2.742857 -1.51484,0 -2.74286,-1.228019 -2.74286,-2.742857 0,-1.514839 1.22802,-2.742858 2.74286,-2.742858 1.51484,0 2.74286,1.228019 2.74286,2.742858 z"
       transform="matrix(0.57575759,0,0,0.57575759,53.660765,1009.9004)" />
    <path
       sodipodi:type="arc"
       style="fill:#19a347;fill-opacity:1;fill-rule:nonzero;stroke:#000000;stroke-width:0;stroke-miterlimit:0;stroke-opacity:1;stroke-dasharray:none"
       id="path3950-8-8"
       sodipodi:cx="133.73506"
       sodipodi:cy="26.976624"
       sodipodi:rx="2.7428572"
       sodipodi:ry="2.7428572"
       d="m 136.47792,26.976624 c 0,1.514838 -1.22802,2.742857 -2.74286,2.742857 -1.51484,0 -2.74286,-1.228019 -2.74286,-2.742857 0,-1.514839 1.22802,-2.742858 2.74286,-2.742858 1.51484,0 2.74286,1.228019 2.74286,2.742858 z"
       transform="matrix(0.57575759,0,0,0.57575759,57.484141,1008.238)" />
    <path
       sodipodi:type="arc"
       style="fill:#19a347;fill-opacity:1;fill-rule:nonzero;stroke:#000000;stroke-width:0;stroke-miterlimit:0;stroke-opacity:1;stroke-dasharray:none"
       id="path3950-8-1"
       sodipodi:cx="133.73506"
       sodipodi:cy="26.976624"
       sodipodi:rx="2.7428572"
       sodipodi:ry="2.7428572"
       d="m 136.47792,26.976624 c 0,1.514838 -1.22802,2.742857 -2.74286,2.742857 -1.51484,0 -2.74286,-1.228019 -2.74286,-2.742857 0,-1.514839 1.22802,-2.742858 2.74286,-2.742858 1.51484,0 2.74286,1.228019 2.74286,2.742858 z"
       transform="matrix(0.57575759,0,0,0.57575759,52.16466,1013.89)" />
    <path
       sodipodi:type="arc"
       style="fill:#19a347;fill-opacity:1;fill-rule:nonzero;stroke:#000000;stroke-width:0;stroke-miterlimit:0;stroke-opacity:1;stroke-dasharray:none"
       id="path3950-8-14"
       sodipodi:cx="133.73506"
       sodipodi:cy="26.976624"
       sodipodi:rx="2.7428572"
       sodipodi:ry="2.7428572"
       d="m 136.47792,26.976624 c 0,1.514838 -1.22802,2.742857 -2.74286,2.742857 -1.51484,0 -2.74286,-1.228019 -2.74286,-2.742857 0,-1.514839 1.22802,-2.742858 2.74286,-2.742858 1.51484,0 2.74286,1.228019 2.74286,2.742858 z"
       transform="matrix(0.57575759,0,0,0.57575759,63.63479,1016.5498)" />
    <path
       sodipodi:type="arc"
       style="fill:#19a347;fill-opacity:1;fill-rule:nonzero;stroke:#000000;stroke-width:0;stroke-miterlimit:0;stroke-opacity:1;stroke-dasharray:none"
       id="path3950-8-9"
       sodipodi:cx="133.73506"
       sodipodi:cy="26.976624"
       sodipodi:rx="2.7428572"
       sodipodi:ry="2.7428572"
       d="m 136.47792,26.976624 c 0,1.514838 -1.22802,2.742857 -2.74286,2.742857 -1.51484,0 -2.74286,-1.228019 -2.74286,-2.742857 0,-1.514839 1.22802,-2.742858 2.74286,-2.742858 1.51484,0 2.74286,1.228019 2.74286,2.742858 z"
       transform="matrix(0.57575759,0,0,0.57575759,63.302323,1012.7263)" />
    <path
       sodipodi:type="arc"
       style="fill:#19a347;fill-opacity:1;fill-rule:nonzero;stroke:#000000;stroke-width:0;stroke-miterlimit:0;stroke-opacity:1;stroke-dasharray:none"
       id="path3950-8-82"
       sodipodi:cx="133.73506"
       sodipodi:cy="26.976624"
       sodipodi:rx="2.7428572"
       sodipodi:ry="2.7428572"
       d="m 136.47792,26.976624 c 0,1.514838 -1.22802,2.742857 -2.74286,2.742857 -1.51484,0 -2.74286,-1.228019 -2.74286,-2.742857 0,-1.514839 1.22802,-2.742858 2.74286,-2.742858 1.51484,0 2.74286,1.228019 2.74286,2.742858 z"
       transform="matrix(0.57575759,0,0,0.57575759,61.141284,1009.4017)" />
    <path
       sodipodi:type="arc"
       style="fill:#19a347;fill-opacity:1;fill-rule:nonzero;stroke:#000000;stroke-width:0;stroke-miterlimit:0;stroke-opacity:1;stroke-dasharray:none"
       id="path3950-8-4"
       sodipodi:cx="133.73506"
       sodipodi:cy="26.976624"
       sodipodi:rx="2.7428572"
       sodipodi:ry="2.7428572"
       d="m 136.47792,26.976624 c 0,1.514838 -1.22802,2.742857 -2.74286,2.742857 -1.51484,0 -2.74286,-1.228019 -2.74286,-2.742857 0,-1.514839 1.22802,-2.742858 2.74286,-2.742858 1.51484,0 2.74286,1.228019 2.74286,2.742858 z"
       transform="matrix(0.57575759,0,0,0.57575759,52.164661,1017.8796)" />
    <path
       sodipodi:type="arc"
       style="fill:#19a347;fill-opacity:1;fill-rule:nonzero;stroke:#000000;stroke-width:0;stroke-miterlimit:0;stroke-opacity:1;stroke-dasharray:none"
       id="path3950-8-5"
       sodipodi:cx="133.73506"
       sodipodi:cy="26.976624"
       sodipodi:rx="2.7428572"
       sodipodi:ry="2.7428572"
       d="m 136.47792,26.976624 c 0,1.514838 -1.22802,2.742857 -2.74286,2.742857 -1.51484,0 -2.74286,-1.228019 -2.74286,-2.742857 0,-1.514839 1.22802,-2.742858 2.74286,-2.742858 1.51484,0 2.74286,1.228019 2.74286,2.742858 z"
       transform="matrix(0.57575759,0,0,0.57575759,62.803621,1020.0406)" />
    <path
       sodipodi:type="arc"
       style="fill:#19a347;fill-opacity:1;fill-rule:nonzero;stroke:#000000;stroke-width:0;stroke-miterlimit:0;stroke-opacity:1;stroke-dasharray:none"
       id="path3950-8-2"
       sodipodi:cx="133.73506"
       sodipodi:cy="26.976624"
       sodipodi:rx="2.7428572"
       sodipodi:ry="2.7428572"
       d="m 136.47792,26.976624 c 0,1.514838 -1.22802,2.742857 -2.74286,2.742857 -1.51484,0 -2.74286,-1.228019 -2.74286,-2.742857 0,-1.514839 1.22802,-2.742858 2.74286,-2.742858 1.51484,0 2.74286,1.228019 2.74286,2.742858 z"
       transform="matrix(0.57575759,0,0,0.57575759,53.660763,1021.3705)" />
    <path
       sodipodi:type="arc"
       style="fill:#19a347;fill-opacity:1;fill-rule:nonzero;stroke:#000000;stroke-width:0;stroke-miterlimit:0;stroke-opacity:1;stroke-dasharray:none"
       id="path3950-8-2-9"
       sodipodi:cx="133.73506"
       sodipodi:cy="26.976624"
       sodipodi:rx="2.7428572"
       sodipodi:ry="2.7428572"
       d="m 136.47792,26.976624 c 0,1.514838 -1.22802,2.742857 -2.74286,2.742857 -1.51484,0 -2.74286,-1.228019 -2.74286,-2.742857 0,-1.514839 1.22802,-2.742858 2.74286,-2.742858 1.51484,0 2.74286,1.228019 2.74286,2.742858 z"
       transform="matrix(0.57575759,0,0,0.57575759,56.819205,1023.5315)" />
    <path
       sodipodi:type="arc"
       style="fill:#19a347;fill-opacity:1;fill-rule:nonzero;stroke:#000000;stroke-width:0;stroke-miterlimit:0;stroke-opacity:1;stroke-dasharray:none"
       id="path3950-8-2-9-9"
       sodipodi:cx="133.73506"
       sodipodi:cy="26.976624"
       sodipodi:rx="2.7428572"
       sodipodi:ry="2.7428572"
       d="m 136.47792,26.976624 c 0,1.514838 -1.22802,2.742857 -2.74286,2.742857 -1.51484,0 -2.74286,-1.228019 -2.74286,-2.742857 0,-1.514839 1.22802,-2.742858 2.74286,-2.742858 1.51484,0 2.74286,1.228019 2.74286,2.742858 z"
       transform="matrix(0.57575759,0,0,0.57575759,60.476349,1022.8666)" />
    <path
       sodipodi:type="arc"
       style="fill:#ff0000;fill-opacity:1;fill-rule:nonzero;stroke:#000000;stroke-width:0;stroke-miterlimit:0;stroke-opacity:1;stroke-dasharray:none"
       id="path3950-8-14-8"
       sodipodi:cx="133.73506"
       sodipodi:cy="26.976624"
       sodipodi:rx="2.7428572"
       sodipodi:ry="2.7428572"
       d="m 136.47792,26.976624 c 0,1.514838 -1.22802,2.742857 -2.74286,2.742857 -1.51484,0 -2.74286,-1.228019 -2.74286,-2.742857 0,-1.514839 1.22802,-2.742858 2.74286,-2.742858 1.51484,0 2.74286,1.228019 2.74286,2.742858 z"
       transform="matrix(0.57575759,0,0,0.57575759,114.66855,1026.6899)"
       inkscape:export-filename="C:\Users\a2mb0079\gitRepo\_mywebsitegen\template\img\logo_hover.png"
       inkscape:export-xdpi="90"
       inkscape:export-ydpi="90" />
  </g>
</svg>
